<?xml version="1.0" encoding="utf-8"?>
<svg xmlns="http://www.w3.org/2000/svg" viewBox="295 237 663 681" width="663" height="681">
  <path fill="#FACC15" d="M 301.525 242.939 C 305.308 244.296 335.262 268.635 340.943 273.084 C 432.827 345.624 523.286 419.952 612.268 496.024 C 611.236 529.615 612.152 568.635 612.143 602.674 L 612.173 815.963 C 612.177 847 612.963 881.275 611.881 911.941 L 611.029 911.749 C 605.076 903.123 594.468 883.139 588.69 873.141 L 541.636 792.053 L 541.744 565.694 C 498.975 511.292 456.022 453.132 414.452 397.708 C 389.815 365.035 365.482 332.134 341.456 299.01 C 328.161 280.706 314.085 261.668 301.525 242.939 Z"/>
  <path fill="#FACC15" d="M 952.475 242.939 C 948.692 244.296 918.738 268.635 913.057 273.084 C 821.173 345.624 730.714 419.952 641.732 496.024 C 642.764 529.615 641.848 568.635 641.857 602.674 L 641.827 815.963 C 641.823 847 641.037 881.275 642.119 911.941 L 642.971 911.749 C 648.924 903.123 659.532 883.139 665.31 873.141 L 712.364 792.053 L 712.256 565.694 C 755.025 511.292 797.978 453.132 839.548 397.708 C 864.185 365.035 888.518 332.134 912.544 299.01 C 925.839 280.706 939.915 261.668 952.475 242.939 Z"/>
</svg>
