<svg width="1400" height="1600" viewBox="0 0 1400 1600" fill="none" xmlns="http://www.w3.org/2000/svg">
<rect width="1400" height="1600" fill="#0A0E12"/>
<path d="M459.131 357.18C461.938 358.187 484.159 376.243 488.373 379.543C556.536 433.356 623.642 488.496 689.653 544.929C688.887 569.848 689.567 598.795 689.56 624.046L689.582 782.272C689.585 805.297 690.168 830.723 689.366 853.473L688.734 853.33C684.318 846.931 676.448 832.106 672.162 824.689L637.255 764.535L637.335 596.613C605.608 556.255 573.743 513.11 542.905 471.994C524.628 447.756 506.577 423.349 488.754 398.776C478.891 385.197 468.449 371.074 459.131 357.18Z" fill="#FACC15"/>
<path d="M942.032 357.18C939.226 358.187 917.005 376.243 912.79 379.543C844.627 433.356 777.521 488.496 711.51 544.929C712.276 569.848 711.596 598.795 711.603 624.046L711.581 782.272C711.578 805.297 710.995 830.723 711.798 853.473L712.43 853.33C716.846 846.931 724.715 832.106 729.002 824.689L763.908 764.535L763.828 596.613C795.556 556.255 827.42 513.11 858.258 471.994C876.535 447.756 894.586 423.349 912.41 398.776C922.272 385.197 932.714 371.074 942.032 357.18Z" fill="#FACC15"/>
<path d="M974.758 1244.42L974.979 1243.85V1147.12V1050.4L986.828 1050.49L998.677 1050.58L1001.14 1056.08L1003.61 1061.58L1005.67 1065.52L1007.74 1069.46L1007.98 1069.36L1008.23 1069.26L1010.24 1066.92L1012.25 1064.59L1019.73 1057L1027.22 1049.41H1047.6H1067.97L1068.93 1049.23L1069.89 1049.05L1084.66 1063.66L1099.43 1078.26L1099.42 1116.56L1099.41 1154.85L1098.68 1155.85L1097.95 1156.84L1089.76 1164.48L1081.57 1172.11L1076.24 1177.51L1070.91 1182.91L1070.05 1183.35L1069.19 1183.8L1049.88 1183.6L1030.58 1183.41L1029.22 1182.21L1027.86 1181.02L1023.02 1176.67L1018.18 1172.32L1015.24 1169.88L1012.3 1167.44L1012.21 1167.55L1012.12 1167.67L1012.37 1181.35L1012.62 1195.03L1012.56 1206.5L1012.51 1217.97L1007.51 1221.48L1002.5 1224.98L997.498 1228.51L992.494 1232.03L990.325 1233.76L988.157 1235.48L983.486 1238.79L978.816 1242.09L976.676 1243.55L974.536 1245L974.758 1244.42ZM1051.13 1149.14L1052.39 1148.79L1057.23 1144.27L1062.06 1139.74L1062.47 1139.03L1062.88 1138.31L1063 1126.64L1063.11 1114.96L1062.88 1104.12L1062.65 1093.28L1060.26 1090.93L1057.88 1088.59L1054.75 1085.68L1051.61 1082.77L1050.91 1082.77L1050.21 1082.76L1038 1082.68L1025.79 1082.6L1024.43 1083.77L1023.07 1084.94L1018.57 1089.03L1014.08 1093.13L1013.46 1094.04L1012.84 1094.94V1115.63V1136.31L1013.09 1137.2L1013.34 1138.1L1016.26 1140.92L1019.18 1143.75L1022.65 1146.62L1026.11 1149.49L1037.99 1149.49L1049.87 1149.49L1051.13 1149.14ZM1237.59 1243.48L1238.4 1242.4L1240.52 1238.9L1242.64 1235.39L1245.38 1231.22L1248.11 1227.05L1252.79 1219.71L1257.48 1212.37L1258.33 1211.13L1259.19 1209.89L1274.37 1210.1L1289.55 1210.31L1289.75 1209.68L1289.95 1209.04L1291.65 1204.7L1293.34 1200.36L1296.76 1192.36L1300.18 1184.35L1301.53 1181.57L1302.88 1178.78L1302.09 1176.73L1301.29 1174.68L1299.31 1170.01L1297.34 1165.34L1295.31 1160.83L1293.29 1156.33L1290.39 1149.66L1287.48 1142.98L1286.24 1139.65L1284.99 1136.31L1281.98 1129.31L1278.96 1122.3L1275.95 1114.79L1272.93 1107.29L1268.36 1096.78L1263.79 1086.27L1261.32 1080.62L1258.85 1074.96L1256.16 1068.27L1253.47 1061.58L1251.14 1056.41L1248.8 1051.24L1248.42 1050.77L1248.04 1050.3L1250.87 1050.52L1253.71 1050.74L1271.28 1050.74L1288.85 1050.74L1289.42 1052.33L1290 1053.91L1293.08 1061.75L1296.16 1069.59L1297.92 1074.43L1299.68 1079.27L1303.13 1088L1306.58 1096.73L1310.04 1106.18L1313.51 1115.63L1314.08 1116.96L1314.65 1118.3L1317.83 1126.8L1321 1135.31L1321.34 1136.56L1321.67 1137.8L1321.93 1137.65L1322.18 1137.49L1322.94 1135.4L1323.71 1133.31L1327.29 1123.8L1330.87 1114.29L1333.89 1106.45L1336.91 1098.61L1341.13 1087.27L1345.35 1075.93L1348.52 1067.92L1351.69 1059.92L1353.18 1055.91L1354.66 1051.91L1355.1 1051.24L1355.54 1050.58H1375.26H1394.99V1050.64V1050.7L1394.34 1051.81L1393.69 1052.91L1390.71 1059.92L1387.72 1066.92L1385.06 1073.26L1382.41 1079.6L1380.63 1083.94L1378.86 1088.27L1376.72 1093.28L1374.58 1098.28L1368.42 1112.96L1362.25 1127.64L1359.57 1133.98L1356.89 1140.32L1354.96 1144.65L1353.04 1148.99L1350.96 1153.99L1348.87 1159L1346.04 1165.67L1343.21 1172.34L1340.62 1178.68L1338.02 1185.02L1334.85 1192.36L1331.69 1199.7L1328.33 1207.7L1324.97 1215.71L1323.26 1219.55L1321.54 1223.38L1319.86 1227.39L1318.18 1231.39L1315.92 1237.06L1313.66 1242.73L1313.24 1243.65L1312.81 1244.57H1274.8H1236.78L1237.59 1243.48ZM1318.58 1225.72V1225.38L1318.26 1225.89L1317.94 1226.39V1226.72V1227.05L1318.26 1226.55L1318.58 1226.05V1225.72ZM1319.59 1223.28L1319.58 1222.72L1319.26 1223.22L1318.94 1223.72L1318.93 1223.99L1318.93 1224.26L1319.26 1224.05L1319.59 1223.84L1319.59 1223.28ZM1272.78 1101.39L1272.61 1100.95L1272.58 1101.59L1272.56 1102.23L1272.76 1102.03L1272.96 1101.83L1272.78 1101.39ZM1271.45 1098.39L1271.27 1097.95L1271.25 1098.59L1271.22 1099.23L1271.42 1099.02L1271.62 1098.82L1271.45 1098.39ZM610.155 1182.1L608.235 1180.01L595.613 1167.5L582.992 1154.99V1102.87V1050.74L599.923 1050.74L616.853 1050.74L618.521 1050.54L620.189 1050.33L620.097 1086.32L620.005 1122.3L620.286 1131.28L620.568 1140.27L622.38 1141.9L624.192 1143.54L626.695 1145.72L629.197 1147.91L630.531 1148.52L631.865 1149.14H642.04H652.215L653.55 1148.52L654.884 1147.9L657.386 1145.67L659.888 1143.43L661.223 1142.21L662.557 1140.98L664.186 1139.06L665.814 1137.14L666.099 1135.61L666.385 1134.08L666.215 1092.33L666.046 1050.58L684.485 1050.63L702.924 1050.68L703.003 1053.3L703.082 1055.91L703.17 1119.55L703.257 1183.18L691.505 1183.18L679.753 1183.18L679.189 1182.32L678.625 1181.46L675.817 1175.4L673.009 1169.34L671.82 1166.59L670.631 1163.83H670.395H670.158L668.891 1165.75L667.625 1167.67L659.294 1175.93L650.962 1184.18H631.519H612.076L610.155 1182.1ZM623.859 1145.63L622.524 1144.45L621.717 1143.72L620.909 1142.98L621.417 1143.82L621.926 1144.65L623.335 1145.74L624.745 1146.82L624.969 1146.81L625.193 1146.8L623.859 1145.63ZM852.92 1179.49L848.423 1174.8L844.062 1170.76L839.702 1166.71L833.614 1160.8L827.525 1154.88V1116.52V1078.15L827.722 1077.64L827.918 1077.13L831.642 1073.72L835.365 1070.32L846.207 1059.76L857.05 1049.2L889.409 1049.32L921.769 1049.45L922.603 1049.96L923.437 1050.47L930.61 1057.73L937.782 1064.99L944.345 1071.29L950.909 1077.6L951.098 1081.91L951.287 1086.22L951.311 1120.78L951.335 1155.33L945.226 1161.14L939.117 1166.94L930.343 1175.56L921.569 1184.18H889.493H857.417L852.92 1179.49ZM902.06 1150.79L903.367 1150.43L908.648 1145.23L913.929 1140.04V1117.16V1094.27L913.608 1093.15L913.287 1092.03L911.551 1090.15L909.815 1088.27L907.456 1085.82L905.097 1083.37L903.74 1082.58L902.383 1081.78L889.558 1081.75L876.732 1081.71L875.898 1082.04L875.064 1082.36L870.663 1086.58L866.262 1090.8L865.567 1091.93L864.872 1093.05L864.964 1116.8L865.056 1140.55L866.724 1141.93L868.392 1143.31L871.971 1146.82L875.55 1150.32L876.641 1150.72L877.733 1151.12L889.242 1151.14L900.752 1151.15L902.06 1150.79ZM225.327 1183.27L194.763 1183.18L187.463 1175.92L180.163 1168.67L173.074 1162.06L165.985 1155.46L165.971 1155.06L165.957 1154.66L165.842 1150.99L165.727 1147.32L165.68 1112.34L165.633 1077.35L170.563 1072.64L175.492 1067.92L182.52 1061.08L189.548 1054.24L192.384 1051.67L195.22 1049.1L225.222 1049.09L255.224 1049.07L256.25 1049.7L257.275 1050.33L263.255 1056.09L269.236 1061.85L276.992 1069.66L284.748 1077.47V1097.38V1117.3L284.962 1121.97L285.176 1126.64L243.844 1126.55L202.512 1126.46L202.62 1133.34L202.729 1140.23L202.954 1140.8L203.179 1141.37L208.293 1146.26L213.407 1151.16L214.298 1151.41L215.189 1151.66L248.416 1151.65L281.643 1151.64L280.183 1154.32L278.723 1157L273.286 1167.84L267.848 1178.68L266.873 1181.1L265.897 1183.52L260.893 1183.43L255.889 1183.35L225.327 1183.27ZM248.91 1094.86L248.677 1088.27L247.788 1086.98L246.898 1085.68L242.901 1081.89L238.903 1078.1L232.218 1078.1L225.533 1078.1L219.362 1077.89L213.19 1077.69L210.021 1080.37L206.851 1083.05L204.85 1085.31L202.848 1087.58L202.74 1094.51L202.633 1101.45H225.888H249.143L248.91 1094.86ZM282.933 1079.61L282.706 1078.1H282.45H282.195L282.535 1079.76L282.875 1081.42L283.018 1081.27L283.161 1081.13L282.933 1079.61ZM282.079 1077.32V1077.21L281.162 1076.4L280.245 1075.6L281.053 1076.51L281.862 1077.43H281.971H282.079V1077.32ZM1163.6 1183.18L1118.12 1183.02L1119.38 1180.85L1120.63 1178.68L1126.1 1168.34L1131.57 1158L1133.18 1154.88L1134.8 1151.76L1163.73 1151.8L1192.66 1151.84L1194.36 1151.4L1196.06 1150.95L1197.95 1149.32L1199.84 1147.68L1200.22 1146.34L1200.59 1144.99L1200.24 1140.55L1199.89 1136.12L1199.3 1135.22L1198.71 1134.32L1198.02 1133.74L1197.33 1133.15L1195.8 1132.15L1194.27 1131.14L1170.42 1131.06L1146.56 1130.97L1145.11 1129.97L1143.66 1128.97L1136.47 1121.94L1129.27 1114.91L1125.73 1111.66L1122.19 1108.41L1121.98 1104.68L1121.77 1100.95L1121.71 1088.57L1121.65 1076.2L1122.36 1075.06L1123.07 1073.93L1129.34 1067.76L1135.61 1061.58L1139.45 1057.93L1143.28 1054.27L1145.17 1052.47L1147.05 1050.67L1190.04 1050.62L1233.02 1050.58L1227.88 1060.92L1222.74 1071.26L1220.5 1076.43L1218.26 1081.6L1191.43 1081.64L1164.6 1081.68L1163.57 1082.21L1162.54 1082.75L1160.34 1084.89L1158.13 1087.03L1158.29 1088.98L1158.45 1090.94L1158.62 1093.05L1158.79 1095.17L1159.34 1096.1L1159.89 1097.02L1160.82 1097.57L1161.75 1098.12L1162.47 1099.29L1163.19 1100.45H1188.04H1212.9L1219.96 1107.32L1227.02 1114.19L1231.94 1119.22L1236.86 1124.26L1236.85 1141.29L1236.84 1158.33L1236.34 1159L1235.83 1159.66L1224.19 1171.39L1212.54 1183.12L1210.81 1183.23L1209.08 1183.35L1163.6 1183.18ZM1128.52 1181.27L1127.1 1181.14L1125.69 1181.27L1124.27 1181.4H1127.1H1129.94L1128.52 1181.27ZM1171.56 1181.29L1171.14 1181.13L1170.72 1181.29L1170.31 1181.46H1171.14H1171.97L1171.56 1181.29ZM1176.05 1181.27L1174.79 1181.14L1173.72 1181.27L1172.64 1181.41L1174.98 1181.41L1177.31 1181.4L1176.05 1181.27ZM1179.57 1181.3L1179.16 1181.13L1178.57 1181.28L1177.98 1181.44L1178.98 1181.45L1179.98 1181.46L1179.57 1181.3ZM1186.24 1181.29L1185.82 1181.13L1185.4 1181.29L1184.98 1181.46H1185.82H1186.65L1186.24 1181.29ZM1197.91 1181.29L1197.49 1181.13L1197.08 1181.29L1196.66 1181.46H1197.49H1198.33L1197.91 1181.29ZM1204.26 1181.3L1203.85 1181.13L1203.26 1181.28L1202.67 1181.44L1203.67 1181.45L1204.67 1181.46L1204.26 1181.3ZM1206.41 1181.31L1206.21 1181.11L1205.77 1181.29L1205.33 1181.46L1205.97 1181.49L1206.61 1181.52L1206.41 1181.31ZM1212.94 1179.65L1214.34 1178.11L1218.88 1173.48L1223.41 1168.84H1223.17H1222.92L1217.17 1174.76L1211.41 1180.68L1209.71 1180.88L1208 1181.07L1209.77 1181.13L1211.53 1181.18L1212.94 1179.65ZM1225.34 1166.9L1225.56 1166.34L1224.54 1167.32L1223.52 1168.3V1168.41V1168.52L1224.32 1167.99L1225.13 1167.46L1225.34 1166.9ZM1232.02 1121.47L1230.73 1120.14L1230.56 1120.31L1230.4 1120.48L1231.69 1121.8L1232.98 1123.12L1233.15 1122.96L1233.31 1122.79L1232.02 1121.47ZM1209.41 1120.93L1209.21 1120.73L1208.77 1120.91L1208.34 1121.08L1208.98 1121.11L1209.62 1121.13L1209.41 1120.93ZM1213.77 1120.89L1212.52 1120.76L1211.1 1120.89L1209.67 1121.02L1212.34 1121.02L1215.01 1121.02L1213.77 1120.89ZM1229.69 1120.8L1229.02 1120.51L1222.18 1120.56L1215.34 1120.61L1221.68 1120.8L1228.02 1120.99L1229.19 1121.04L1230.35 1121.09L1229.69 1120.8ZM6.00232 1102.37L6 1021.55L6.10537 1013.63L6.21076 1005.71H60.0022H113.794L114.618 1006.26L115.443 1006.82L117.612 1008.85L119.78 1010.88L130.532 1021.17L141.284 1031.46L141.9 1032.51L142.517 1033.56L142.377 1052.91L142.236 1072.26L139.015 1075.43L135.793 1078.61L130.419 1083.84L125.044 1089.06L126.415 1090.08L127.787 1091.1L137.88 1101.03L147.974 1110.96L147.97 1133.03L147.967 1155.09L141.211 1161.57L134.456 1168.05L130.619 1171.52L126.783 1174.99L122.489 1179L118.194 1183.02L62.098 1183.11L6.00169 1183.19L6.00232 1102.37ZM99.2357 1149.2L100.042 1148.74L104.495 1144.7L108.948 1140.67L109.275 1139.49L109.601 1138.31L109.605 1128.33L109.608 1118.34L108.933 1116.95L108.259 1115.55L104.68 1112.29L101.101 1109.02L100.1 1108.41L99.0995 1107.79L71.6614 1107.79L44.2232 1107.79L44.229 1128.82L44.2349 1149.85L71.3336 1149.75L98.432 1149.66L99.2357 1149.2ZM94.326 1075.63L95.5603 1075.19L97.3284 1073.75L99.0966 1072.31L101.888 1069.45L104.679 1066.59L104.623 1057.81L104.566 1049.03L104.247 1048.19L103.929 1047.35L100.178 1043.51L96.4277 1039.67L95.2601 1039.12L94.0925 1038.57L69.1554 1038.66L44.2184 1038.76V1057.43V1076.1L68.655 1076.08L93.0916 1076.07L94.326 1075.63ZM107.486 1066.67L107.293 1065.25L107.069 1060.99L106.845 1056.73L106.687 1056.88L106.53 1057.04L106.774 1062.57L107.017 1068.09H107.348H107.679L107.486 1066.67ZM343.734 1181.13L342.17 1179.12L339.247 1176.06L336.324 1173.01L328.706 1165.21L321.088 1157.42L320.516 1156.37L319.944 1155.33L319.844 1118.81L319.745 1082.29L319.678 1082.23L319.61 1082.16L316.774 1081.98L313.939 1081.81L306.21 1081.79L298.482 1081.77L298.469 1066.25L298.457 1050.74L307.532 1050.74L316.608 1050.74L318.373 1050.52L320.139 1050.31L319.981 1048.61L319.824 1046.9L319.746 1039.9L319.669 1032.89L323.526 1030.06L327.384 1027.22L332.671 1023.31L337.958 1019.4L341.128 1016.96L344.297 1014.52L348.413 1011.57L352.529 1008.63L354.666 1006.81L356.802 1005L356.888 1027.79L356.974 1050.58H378.408H399.842L399.842 1050.71L399.842 1050.84L393.411 1063.55L386.979 1076.26L385.705 1079.01L384.432 1081.77H370.436H356.439L356.61 1085.85L356.78 1089.94L356.867 1115.77L356.955 1141.59L359.28 1144.29L361.605 1146.99L362.292 1147.52L362.979 1148.06L364.046 1148.61L365.114 1149.16H379.309H393.504V1149.39V1149.63L392.352 1152.14L391.2 1154.66L388.554 1160.33L385.909 1166L382.916 1172.34L379.922 1178.68L379.145 1180.93L378.368 1183.18L361.833 1183.16L345.298 1183.14L343.734 1181.13ZM322.018 1150.24L321.879 1149.32L321.874 1150.99L321.869 1152.66L322.013 1151.91L322.157 1151.17L322.018 1150.24ZM322.01 1144.58L321.856 1143.98L321.843 1144.99L321.831 1145.99L321.997 1145.58L322.163 1145.17L322.01 1144.58ZM321.999 1142.73L321.831 1142.32V1143.15V1143.98L321.999 1143.57L322.168 1143.15L321.999 1142.73ZM322.209 1141.15L322.383 1140.48H322.081H321.779V1141.15V1141.82H321.906H322.034L322.209 1141.15ZM322.279 1138.81L322.048 1137.77L321.911 1137.9L321.774 1138.04L321.987 1139.11L322.2 1140.17L322.355 1140.02L322.509 1139.86L322.279 1138.81ZM398.174 1183.06V1182.93L398.718 1181.64L399.262 1180.35L401.178 1174.84L403.093 1169.34L407.177 1158.33L411.261 1147.32L412.692 1143.32L414.123 1139.31L416.69 1132.48L419.258 1125.64L421.529 1118.96L423.801 1112.29L425.962 1106.12L428.124 1099.95L430.843 1092.61L433.563 1085.27L435.209 1080.77L436.856 1076.26L439.173 1069.76L441.491 1063.25L445.175 1053.08L448.858 1042.9L450.239 1038.9L451.62 1034.9L455.207 1025.05L458.794 1015.21L460.408 1010.46L462.021 1005.71H485.435H508.849L509.525 1007.29L510.2 1008.87L511.196 1011.71L512.193 1014.55L515.049 1022.39L517.905 1030.23L520.552 1037.9L523.2 1045.57L525.225 1050.91L527.249 1056.25L532.907 1071.43L538.564 1086.6L540.396 1091.78L542.228 1096.95L542.804 1098.95L543.379 1100.95L545.702 1106.95L548.024 1112.96L549.805 1118.13L551.585 1123.3L553.406 1128.47L555.228 1133.64L556.903 1137.98L558.577 1142.32L560.477 1147.32L562.377 1152.33L564.972 1160L567.568 1167.67L569.814 1173.18L572.061 1178.68L572.655 1180.35L573.249 1182.02L573.487 1182.6L573.724 1183.19L552.799 1183.1L531.874 1183.02L529.056 1174.84L526.238 1166.67L523.051 1157.16L519.864 1147.65L519.378 1146.71L518.891 1145.76L519.071 1145.29L519.25 1144.83L485.706 1144.74L452.162 1144.65L451.891 1144.99L451.62 1145.32L450.048 1150.32L448.476 1155.33L444.825 1165.46L441.174 1175.6L440.219 1179.31L439.264 1183.02L418.719 1183.1L398.174 1183.19V1183.06ZM536.371 1181.29L535.954 1181.13L535.537 1181.29L535.12 1181.46H535.954H536.788L536.371 1181.29ZM542.542 1181.28L541.625 1181.14L540.708 1181.28L539.79 1181.42H541.625H543.46L542.542 1181.28ZM545.051 1181.3L544.64 1181.13L544.05 1181.28L543.46 1181.44L544.461 1181.45L545.461 1181.46L545.051 1181.3ZM555.062 1140.14L554.885 1139.45L554.719 1139.62L554.553 1139.79L554.751 1140.3L554.948 1140.82H555.094H555.24L555.062 1140.14ZM507.764 1111.37L507.553 1110.62L499.09 1084.94L490.626 1059.25L488.235 1051.74L485.844 1044.24L485.49 1043.8L485.136 1043.37L484.732 1043.8L484.327 1044.24L483.086 1048.41L481.845 1052.58L481.386 1054.08L480.928 1055.58L478.754 1062.92L476.58 1070.26L475.598 1072.93L474.616 1075.6L471.79 1084.1L468.965 1092.61L466.727 1099.62L464.49 1106.62L463.525 1108.75L462.56 1110.88V1111.5V1112.13H485.268H507.976L507.764 1111.37ZM764.045 1182.52L763.574 1181.85L758.782 1176.59L753.991 1171.34L746.639 1163.9L739.287 1156.46L739.193 1119.11L739.1 1081.77H729.102H719.103V1066.29V1050.82L729.091 1050.69L739.079 1050.56L739.319 1050.32L739.559 1050.08L739.185 1041.99L738.81 1033.9L739.215 1033.33L739.62 1032.75L744.791 1028.84L749.962 1024.92L760.804 1016.77L771.646 1008.62L773.815 1006.82L775.983 1005.02L776.069 1027.88L776.155 1050.74H797.866H819.577L817.382 1054.83L815.186 1058.92L810.967 1067.26L806.747 1075.6L805.189 1078.6L803.63 1081.6H790.307H776.984L776.567 1081.68L776.15 1081.77V1111.47V1141.18L776.638 1142.13L777.125 1143.07L779.39 1145.16L781.655 1147.25L783.138 1148.2L784.621 1149.16H798.901H813.18V1149.27V1149.38L811.482 1153.36L809.784 1157.33L804.828 1167.67L799.872 1178.01L798.92 1180.51L797.968 1183.02L781.242 1183.1L764.516 1183.19L764.045 1182.52Z" fill="white"/>
</svg>
