<svg width="4164" height="720" viewBox="0 0 4164 720" fill="none" xmlns="http://www.w3.org/2000/svg">
<rect width="4163.56" height="719.411" fill="#0A0E12"/>
<path d="M2903.9 717.681L2904.56 715.95V426.02V136.089L2940.08 136.351L2975.6 136.614L2982.99 153.114L2990.39 169.614L2996.57 181.416L3002.75 193.217L3003.49 192.916L3004.23 192.614L3010.25 185.614L3016.27 178.614L3038.71 155.864L3061.15 133.114H3122.23H3183.31L3186.19 132.579L3189.06 132.044L3233.33 175.829L3277.6 219.614L3277.58 334.405L3277.56 449.195L3275.36 452.169L3273.16 455.144L3248.61 478.039L3224.06 500.934L3208.09 517.112L3192.12 533.29L3189.54 534.623L3186.97 535.957L3129.09 535.377L3071.22 534.797L3067.14 531.209L3063.06 527.621L3048.56 514.59L3034.06 501.559L3025.25 494.233L3016.43 486.908L3016.16 487.261L3015.88 487.614L3016.63 528.614L3017.38 569.614L3017.22 604.007L3017.06 638.4L3002.06 648.908L2987.06 659.415L2972.06 669.978L2957.06 680.541L2950.56 685.706L2944.06 690.871L2930.06 700.787L2916.06 710.703L2909.65 715.057L2903.23 719.411L2903.9 717.681ZM3132.83 432.056L3136.6 431.008L3151.1 417.455L3165.6 403.901L3166.83 401.758L3168.06 399.614L3168.4 364.614L3168.74 329.614L3168.05 297.114L3167.35 264.614L3160.21 257.591L3153.06 250.568L3143.67 241.841L3134.28 233.114L3132.17 233.105L3130.06 233.096L3093.46 232.855L3056.87 232.614L3052.79 236.114L3048.72 239.614L3035.24 251.89L3021.76 264.166L3019.91 266.89L3018.06 269.614V331.614V393.614L3018.81 396.289L3019.56 398.963L3028.31 407.436L3037.06 415.908L3047.45 424.511L3057.84 433.114L3093.45 433.108L3129.06 433.102L3132.83 432.056ZM3691.74 714.864L3694.16 711.614L3700.53 701.114L3706.89 690.614L3715.09 678.114L3723.28 665.614L3737.32 643.614L3751.36 621.614L3753.93 617.892L3756.5 614.17L3802 614.804L3847.5 615.438L3848.11 613.526L3848.71 611.614L3853.79 598.614L3858.87 585.614L3869.11 561.614L3879.36 537.614L3883.42 529.263L3887.47 520.912L3885.09 514.763L3882.7 508.614L3876.77 494.614L3870.84 480.614L3864.78 467.114L3858.72 453.614L3850.01 433.614L3841.29 413.614L3837.57 403.614L3833.84 393.614L3824.8 372.614L3815.75 351.614L3806.72 329.114L3797.69 306.614L3783.98 275.114L3770.27 243.614L3762.88 226.665L3755.48 209.717L3747.42 189.665L3739.36 169.614L3732.36 154.114L3725.37 138.614L3724.21 137.201L3723.06 135.787L3731.56 136.445L3740.06 137.102L3792.73 137.108L3845.4 137.114L3847.13 141.864L3848.86 146.614L3858.08 170.114L3867.3 193.614L3872.58 208.114L3877.85 222.614L3888.2 248.787L3898.55 274.961L3908.94 303.287L3919.32 331.614L3921.03 335.614L3922.75 339.614L3932.26 365.114L3941.78 390.614L3942.79 394.35L3943.8 398.086L3944.55 397.621L3945.3 397.157L3947.59 390.885L3949.89 384.614L3960.62 356.114L3971.35 327.614L3980.4 304.114L3989.45 280.614L4002.11 246.614L4014.78 212.614L4024.27 188.614L4033.77 164.614L4038.23 152.614L4042.68 140.614L4044 138.614L4045.31 136.614H4104.43H4163.56V136.807V137L4161.61 140.307L4159.67 143.614L4150.72 164.614L4141.78 185.614L4133.81 204.614L4125.84 223.614L4120.53 236.614L4115.22 249.614L4108.81 264.614L4102.4 279.614L4083.91 323.614L4065.42 367.614L4057.39 386.614L4049.36 405.614L4043.59 418.614L4037.82 431.614L4031.57 446.614L4025.32 461.614L4016.84 481.614L4008.35 501.614L4000.58 520.614L3992.8 539.614L3983.31 561.614L3973.81 583.614L3963.75 607.614L3953.69 631.614L3948.54 643.114L3943.4 654.614L3938.35 666.614L3933.31 678.614L3926.53 695.614L3919.76 712.614L3918.5 715.364L3917.24 718.114H3803.28H3689.32L3691.74 714.864ZM3934.53 661.614V660.614L3933.56 662.114L3932.59 663.614V664.614V665.614L3933.56 664.114L3934.53 662.614V661.614ZM3937.55 654.305L3937.53 652.614L3936.56 654.114L3935.59 655.614L3935.58 656.423L3935.56 657.232L3936.56 656.614L3937.56 655.996L3937.55 654.305ZM3797.24 288.927L3796.72 287.614L3796.64 289.531L3796.56 291.447L3797.17 290.843L3797.77 290.239L3797.24 288.927ZM3793.24 279.927L3792.72 278.614L3792.64 280.531L3792.56 282.447L3793.17 281.843L3793.77 281.239L3793.24 279.927ZM1810.98 530.864L1805.23 524.614L1767.39 487.114L1729.56 449.613V293.364V137.114L1780.31 137.105L1831.06 137.096L1836.06 136.495L1841.06 135.894L1840.79 243.754L1840.51 351.613L1841.35 378.543L1842.2 405.473L1847.63 410.371L1853.06 415.27L1860.56 421.82L1868.06 428.371L1872.06 430.22L1876.06 432.07H1906.56H1937.06L1941.06 430.212L1945.06 428.354L1952.56 421.659L1960.06 414.965L1964.06 411.28L1968.06 407.596L1972.94 401.843L1977.82 396.091L1978.68 391.513L1979.53 386.935L1979.03 261.774L1978.52 136.613L2033.79 136.772L2089.06 136.932L2089.3 144.772L2089.54 152.613L2089.8 343.364L2090.06 534.114L2054.83 534.114L2019.61 534.113L2017.92 531.534L2016.23 528.954L2007.81 510.784L1999.39 492.613L1995.83 484.363L1992.26 476.113H1991.55H1990.84L1987.05 481.863L1983.25 487.613L1958.28 512.363L1933.3 537.113H1875.02H1816.74L1810.98 530.864ZM1852.06 421.535L1848.06 418.01L1845.64 415.812L1843.22 413.614L1844.74 416.114L1846.27 418.614L1850.49 421.864L1854.72 425.114L1855.39 425.087L1856.06 425.06L1852.06 421.535ZM2538.68 523.047L2525.2 508.98L2512.13 496.862L2499.06 484.743L2480.81 467.008L2462.56 449.272V334.275V219.278L2463.15 217.743L2463.74 216.209L2474.9 206.003L2486.06 195.797L2518.56 164.141L2551.06 132.485L2648.06 132.858L2745.06 133.23L2747.56 134.764L2750.06 136.297L2771.56 158.055L2793.06 179.813L2812.73 198.714L2832.41 217.614L2832.98 230.543L2833.54 243.473L2833.62 347.043L2833.69 450.614L2815.37 468.023L2797.06 485.432L2770.76 511.273L2744.46 537.114H2648.31H2552.16L2538.68 523.047ZM2685.98 437.015L2689.9 435.926L2705.73 420.354L2721.56 404.781V336.191V267.601L2720.6 264.243L2719.64 260.886L2714.43 255.25L2709.23 249.614L2702.16 242.267L2695.09 234.92L2691.02 232.536L2686.95 230.153L2648.51 230.053L2610.06 229.954L2607.56 230.919L2605.06 231.883L2591.87 244.538L2578.68 257.192L2576.59 260.563L2574.51 263.934L2574.79 335.119L2575.06 406.304L2580.06 410.449L2585.06 414.593L2595.79 425.104L2606.52 435.614L2609.79 436.808L2613.06 438.001L2647.56 438.052L2682.06 438.103L2685.98 437.015ZM657.444 534.364L565.827 534.104L543.944 512.353L522.061 490.603L500.811 470.801L479.561 450.999L479.519 449.806L479.477 448.614L479.133 437.614L478.79 426.614L478.648 321.745L478.507 216.876L493.284 202.745L508.061 188.614L529.128 168.114L550.195 147.614L558.695 139.907L567.195 132.201L657.128 132.158L747.061 132.115L750.135 133.993L753.21 135.871L771.135 153.136L789.061 170.401L812.311 193.811L835.561 217.22V276.917V336.614L836.202 350.614L836.843 364.614L712.948 364.344L589.054 364.074L589.379 384.71L589.704 405.346L590.379 407.059L591.054 408.772L606.383 423.444L621.713 438.116L624.383 438.865L627.054 439.614L726.654 439.593L826.253 439.573L821.877 447.593L817.501 455.614L801.201 488.114L784.902 520.614L781.978 527.861L779.054 535.108L764.054 534.866L749.054 534.625L657.444 534.364ZM728.135 269.364L727.436 249.614L724.77 245.73L722.104 241.847L710.121 230.48L698.137 219.114L678.099 219.111L658.061 219.108L639.561 218.505L621.061 217.903L611.561 225.935L602.061 233.966L596.061 240.748L590.061 247.529L589.739 268.321L589.417 289.114H659.125H728.834L728.135 269.364ZM830.12 223.66L829.439 219.114H828.673H827.908L828.927 224.089L829.946 229.063L830.374 228.635L830.802 228.206L830.12 223.66ZM827.561 216.788V216.463L824.811 214.038L822.061 211.614L824.486 214.364L826.91 217.114H827.236H827.561V216.788ZM3469.97 534.114L3333.64 533.614L3337.4 527.114L3341.16 520.614L3357.55 489.614L3373.94 458.614L3378.78 449.264L3383.63 439.913L3470.35 440.042L3557.06 440.171L3562.16 438.827L3567.27 437.483L3572.93 432.594L3578.59 427.704L3579.72 423.659L3580.85 419.614L3579.79 406.321L3578.73 393.028L3576.97 390.34L3575.21 387.652L3573.14 385.894L3571.06 384.135L3566.48 381.128L3561.9 378.121L3490.39 377.868L3418.89 377.614L3414.55 374.614L3410.2 371.614L3388.63 350.536L3367.06 329.457L3356.44 319.714L3345.82 309.97L3345.2 298.792L3344.58 287.614L3344.4 250.513L3344.21 213.413L3346.34 210.013L3348.46 206.614L3367.27 188.114L3386.07 169.614L3397.57 158.649L3409.06 147.685L3414.71 142.285L3420.35 136.885L3549.21 136.749L3678.06 136.614L3662.64 167.614L3647.22 198.614L3640.52 214.114L3633.81 229.614L3553.38 229.737L3472.95 229.86L3469.87 231.455L3466.78 233.05L3460.18 239.466L3453.57 245.882L3454.04 251.748L3454.51 257.614L3455.03 263.949L3455.55 270.284L3457.19 273.063L3458.83 275.843L3461.62 277.492L3464.41 279.14L3466.57 282.627L3468.72 286.114H3543.23H3617.74L3638.9 306.715L3660.06 327.316L3674.81 342.395L3689.56 357.473L3689.53 408.544L3689.5 459.614L3687.99 461.614L3686.48 463.614L3651.57 498.764L3616.67 533.914L3611.48 534.264L3606.3 534.614L3469.97 534.114ZM3364.81 528.382L3360.56 527.999L3356.31 528.382L3352.06 528.765H3360.56H3369.06L3364.81 528.382ZM3493.81 528.452L3492.56 527.947L3491.31 528.452L3490.06 528.956H3492.56H3495.06L3493.81 528.452ZM3507.29 528.384L3503.52 527.991L3500.29 528.392L3497.06 528.794L3504.06 528.786L3511.06 528.778L3507.29 528.384ZM3517.83 528.458L3516.6 527.96L3514.83 528.421L3513.06 528.882L3516.06 528.919L3519.06 528.956L3517.83 528.458ZM3537.81 528.452L3536.56 527.948L3535.31 528.452L3534.06 528.957H3536.56H3539.06L3537.81 528.452ZM3572.81 528.452L3571.56 527.948L3570.31 528.452L3569.06 528.957H3571.56H3574.06L3572.81 528.452ZM3591.83 528.458L3590.6 527.96L3588.83 528.421L3587.06 528.882L3590.06 528.919L3593.06 528.956L3591.83 528.458ZM3598.29 528.51L3597.69 527.906L3596.37 528.431L3595.06 528.956L3596.98 529.035L3598.89 529.114L3598.29 528.51ZM3617.85 523.513L3622.06 518.912L3635.65 505.013L3649.25 491.114H3648.51H3647.77L3630.53 508.864L3613.28 526.614L3608.17 527.201L3603.06 527.788L3608.35 527.951L3613.63 528.114L3617.85 523.513ZM3655.04 485.306L3655.69 483.617L3652.62 486.553L3649.56 489.488V489.824V490.16L3651.98 488.577L3654.39 486.994L3655.04 485.306ZM3675.06 349.114L3671.19 345.151L3670.69 345.651L3670.19 346.151L3674.06 350.114L3677.93 354.077L3678.43 353.577L3678.93 353.077L3675.06 349.114ZM3607.29 347.51L3606.69 346.906L3605.37 347.431L3604.06 347.956L3605.98 348.035L3607.89 348.114L3607.29 347.51ZM3620.34 347.387L3616.61 346.996L3612.34 347.381L3608.06 347.765L3616.06 347.772L3624.06 347.779L3620.34 347.387ZM3668.06 347.114L3666.06 346.255L3645.56 346.401L3625.06 346.547L3644.06 347.114L3663.06 347.681L3666.56 347.827L3670.06 347.973L3668.06 347.114ZM0.00695801 291.878L0 49.6141L0.315857 25.8641L0.631775 2.11406H161.874H323.116L325.589 3.77858L328.061 5.4431L334.561 11.5333L341.061 17.6236L373.29 48.4666L405.519 79.3095L407.368 82.4618L409.216 85.6141L408.796 143.614L408.375 201.614L398.718 211.132L389.061 220.65L372.951 236.313L356.84 251.975L360.951 255.038L365.061 258.101L395.317 287.857L425.572 317.614L425.562 383.762L425.552 449.911L405.302 469.331L385.052 488.751L373.552 499.153L362.052 509.556L349.18 521.585L336.308 533.614L168.156 533.878L0.00506592 534.142L0.00695801 291.878ZM279.478 432.24L281.895 430.865L295.243 418.766L308.591 406.667L309.57 403.141L310.55 399.614L310.56 369.68L310.57 339.746L308.548 335.568L306.526 331.391L295.798 321.602L285.07 311.812L282.07 309.967L279.07 308.122L196.823 308.118L114.576 308.114L114.593 371.157L114.611 434.201L195.84 433.907L277.069 433.614L279.478 432.24ZM264.761 211.705L268.461 210.384L273.761 206.076L279.061 201.769L287.428 193.191L295.795 184.614L295.626 158.291L295.456 131.968L294.501 129.456L293.546 126.943L282.304 115.428L271.061 103.912L267.561 102.263L264.061 100.614L189.311 100.912L114.561 101.209V157.162V213.114L187.811 213.07L261.061 213.026L264.761 211.705ZM304.209 184.864L303.63 180.614L302.958 167.835L302.287 155.055L301.815 155.527L301.343 155.999L302.074 172.556L302.804 189.114H303.796H304.788L304.209 184.864ZM1012.37 527.956L1007.69 521.929L998.923 512.771L990.161 503.614L967.326 480.246L944.49 456.877L942.776 453.746L941.061 450.614L940.763 341.15L940.466 231.685L940.263 231.488L940.061 231.29L931.561 230.762L923.061 230.234L899.895 230.174L876.728 230.114L876.691 183.614L876.654 137.114L903.857 137.105L931.061 137.096L936.353 136.46L941.645 135.825L941.173 130.713L940.701 125.601L940.469 104.607L940.236 83.6134L951.801 75.1134L963.365 66.6134L979.213 54.8864L995.061 43.1593L1004.56 35.8537L1014.06 28.5482L1026.4 19.7077L1038.74 10.8672L1045.14 5.43358L1051.55 0L1051.8 68.3067L1052.06 136.613H1116.31H1180.56L1180.56 137.005L1180.56 137.397L1161.28 175.505L1142 213.613L1138.18 221.863L1134.37 230.113H1092.41H1050.46L1050.97 242.363L1051.48 254.613L1051.74 332.028L1052 409.444L1058.97 417.528L1065.94 425.613L1068 427.222L1070.06 428.831L1073.26 430.472L1076.46 432.113H1119.01H1161.56V432.819V433.525L1158.11 441.069L1154.65 448.613L1146.73 465.613L1138.8 482.613L1129.82 501.613L1120.85 520.613L1118.52 527.363L1116.19 534.113L1066.63 534.048L1017.06 533.983L1012.37 527.956ZM947.279 435.378L946.861 432.614L946.847 437.614L946.833 442.614L947.265 440.378L947.696 438.142L947.279 435.378ZM947.254 418.383L946.793 416.614L946.756 419.614L946.719 422.614L947.217 421.383L947.715 420.152L947.254 418.383ZM947.223 412.864L946.719 411.614V414.114V416.614L947.223 415.364L947.727 414.114L947.223 412.864ZM947.85 408.114L948.373 406.114H947.468H946.561V408.114V410.114H946.945H947.328L947.85 408.114ZM948.061 401.114L947.37 397.971L946.958 398.383L946.547 398.795L947.186 401.989L947.824 405.184L948.288 404.72L948.751 404.257L948.061 401.114ZM1175.56 533.744V533.358L1177.19 529.486L1178.82 525.614L1184.56 509.114L1190.31 492.614L1202.55 459.614L1214.79 426.614L1219.08 414.614L1223.37 402.614L1231.06 382.114L1238.76 361.614L1245.57 341.614L1252.38 321.614L1258.86 303.114L1265.34 284.614L1273.49 262.614L1281.64 240.614L1286.57 227.114L1291.51 213.614L1298.46 194.114L1305.41 174.614L1316.45 144.114L1327.49 113.614L1331.63 101.614L1335.77 89.6141L1346.52 60.1141L1357.27 30.6141L1362.11 16.3641L1366.95 2.11406H1437.13H1507.31L1509.34 6.86406L1511.36 11.6141L1514.35 20.1141L1517.34 28.6141L1525.9 52.1141L1534.46 75.6141L1542.39 98.6141L1550.33 121.614L1556.4 137.614L1562.47 153.614L1579.43 199.114L1596.39 244.614L1601.88 260.114L1607.37 275.614L1609.09 281.614L1610.82 287.614L1617.78 305.614L1624.74 323.614L1630.08 339.114L1635.42 354.614L1640.88 370.114L1646.34 385.614L1651.36 398.614L1656.38 411.614L1662.07 426.614L1667.77 441.614L1675.55 464.614L1683.33 487.614L1690.06 504.114L1696.79 520.614L1698.58 525.614L1700.36 530.614L1701.07 532.372L1701.78 534.129L1639.06 533.872L1576.33 533.614L1567.89 509.114L1559.44 484.614L1549.89 456.114L1540.33 427.614L1538.87 424.774L1537.42 421.934L1537.95 420.533L1538.49 419.133L1437.94 418.874L1337.39 418.614L1336.58 419.614L1335.77 420.614L1331.06 435.614L1326.34 450.614L1315.4 480.996L1304.46 511.378L1301.59 522.496L1298.73 533.614L1237.15 533.872L1175.56 534.129V533.744ZM1589.81 528.452L1588.56 527.947L1587.31 528.452L1586.06 528.956H1588.56H1591.06L1589.81 528.452ZM1608.31 528.398L1605.56 527.981L1602.81 528.398L1600.06 528.814H1605.56H1611.06L1608.31 528.398ZM1615.83 528.458L1614.6 527.96L1612.83 528.421L1611.06 528.882L1614.06 528.919L1617.06 528.956L1615.83 528.458ZM1645.84 405.074L1645.31 403.035L1644.81 403.531L1644.31 404.028L1644.91 405.571L1645.5 407.114H1645.94H1646.37L1645.84 405.074ZM1504.06 318.864L1503.43 316.614L1478.06 239.614L1452.69 162.614L1445.52 140.114L1438.35 117.614L1437.29 116.314L1436.23 115.014L1435.02 116.314L1433.81 117.614L1430.09 130.114L1426.37 142.614L1424.99 147.114L1423.62 151.614L1417.1 173.614L1410.58 195.614L1407.64 203.614L1404.7 211.614L1396.23 237.114L1387.76 262.614L1381.05 283.614L1374.34 304.614L1371.45 311.002L1368.56 317.391V319.252V321.114H1436.63H1504.7L1504.06 318.864ZM2272.28 532.117L2270.86 530.102L2256.5 514.358L2242.14 498.614L2220.1 476.315L2198.06 454.016L2197.78 342.065L2197.5 230.114H2167.53H2137.56V183.731V137.348L2167.5 136.958L2197.44 136.568L2198.16 135.849L2198.88 135.13L2197.76 110.884L2196.63 86.6383L2197.85 84.9153L2199.06 83.1923L2214.56 71.4572L2230.06 59.7221L2262.56 35.2801L2295.06 10.8381L2301.56 5.4489L2308.06 0.0597382L2308.32 68.5869L2308.58 137.114H2373.66H2438.74L2432.16 149.364L2425.57 161.614L2412.93 186.614L2400.28 211.614L2395.61 220.614L2390.93 229.614H2351H2311.06L2309.81 229.864L2308.56 230.114V319.164V408.213L2310.02 411.04L2311.48 413.867L2318.27 420.135L2325.06 426.402L2329.51 429.258L2333.95 432.114H2376.76H2419.56V432.453V432.791L2414.47 444.703L2409.38 456.614L2394.52 487.614L2379.67 518.614L2376.82 526.114L2373.96 533.614L2323.83 533.873L2273.69 534.132L2272.28 532.117Z" fill="#EDEDF3"/>
</svg>
