<svg width="2400" height="600" viewBox="0 0 2400 600" fill="none" xmlns="http://www.w3.org/2000/svg">
<rect width="2400" height="600" fill="#0A0E12"/>
<path d="M324.645 128.243C326.245 128.816 338.911 139.108 341.313 140.989C380.166 171.663 418.416 203.092 456.042 235.259C455.606 249.463 455.993 265.963 455.989 280.356L456.002 370.545C456.004 383.669 456.336 398.162 455.879 411.129L455.518 411.048C453.001 407.401 448.515 398.95 446.072 394.723L426.176 360.435L426.221 264.719C408.136 241.715 389.974 217.123 372.396 193.687C361.978 179.871 351.689 165.959 341.53 151.952C335.908 144.212 329.956 136.162 324.645 128.243Z" fill="#FACC15"/>
<path d="M599.898 128.243C598.299 128.816 585.633 139.108 583.23 140.989C544.377 171.663 506.127 203.092 468.501 235.259C468.937 249.463 468.55 265.963 468.554 280.356L468.541 370.545C468.539 383.669 468.207 398.162 468.665 411.129L469.025 411.048C471.542 407.401 476.028 398.95 478.471 394.723L498.368 360.435L498.322 264.719C516.407 241.715 534.569 217.123 552.147 193.687C562.565 179.871 572.854 165.959 583.013 151.952C588.635 144.212 594.587 136.162 599.898 128.243Z" fill="#FACC15"/>
<path d="M1656.76 419.423L1656.98 418.845V322.123V225.4L1668.83 225.488L1680.68 225.575L1683.14 231.08L1685.61 236.584L1687.67 240.521L1689.74 244.458L1689.98 244.358L1690.23 244.257L1692.24 241.922L1694.25 239.587L1701.73 231.997L1709.22 224.408H1729.6H1749.97L1750.93 224.229L1751.89 224.051L1766.66 238.658L1781.43 253.265L1781.42 291.559L1781.41 329.854L1780.68 330.846L1779.95 331.839L1771.76 339.477L1763.57 347.115L1758.24 352.512L1752.91 357.909L1752.05 358.354L1751.19 358.798L1731.88 358.605L1712.58 358.412L1711.22 357.215L1709.86 356.018L1705.02 351.67L1700.18 347.323L1697.24 344.879L1694.3 342.435L1694.21 342.553L1694.12 342.671L1694.37 356.349L1694.62 370.027L1694.56 381.5L1694.51 392.974L1689.51 396.48L1684.5 399.985L1679.5 403.509L1674.49 407.032L1672.33 408.756L1670.16 410.479L1665.49 413.787L1660.82 417.095L1658.68 418.547L1656.54 420L1656.76 419.423ZM1733.13 324.136L1734.39 323.787L1739.23 319.265L1744.06 314.744L1744.47 314.029L1744.88 313.314L1745 301.637L1745.11 289.961L1744.88 279.119L1744.65 268.277L1742.26 265.934L1739.88 263.591L1736.75 260.68L1733.61 257.768L1732.91 257.765L1732.21 257.762L1720 257.682L1707.79 257.601L1706.43 258.769L1705.07 259.937L1700.57 264.032L1696.08 268.127L1695.46 269.036L1694.84 269.945V290.628V311.312L1695.09 312.204L1695.34 313.097L1698.26 315.923L1701.18 318.749L1704.65 321.619L1708.11 324.489L1719.99 324.487L1731.87 324.485L1733.13 324.136ZM1919.59 418.483L1920.4 417.399L1922.52 413.896L1924.64 410.393L1927.38 406.223L1930.11 402.053L1934.79 394.714L1939.48 387.374L1940.33 386.133L1941.19 384.891L1956.37 385.102L1971.55 385.314L1971.75 384.676L1971.95 384.038L1973.65 379.701L1975.34 375.364L1978.76 367.358L1982.18 359.351L1983.53 356.565L1984.88 353.78L1984.09 351.728L1983.29 349.677L1981.31 345.006L1979.34 340.336L1977.31 335.832L1975.29 331.328L1972.39 324.656L1969.48 317.984L1968.24 314.648L1966.99 311.312L1963.98 304.306L1960.96 297.301L1957.95 289.794L1954.93 282.288L1950.36 271.78L1945.79 261.271L1943.32 255.617L1940.85 249.963L1938.16 243.274L1935.47 236.584L1933.14 231.413L1930.8 226.242L1930.42 225.771L1930.04 225.299L1932.87 225.519L1935.71 225.738L1953.28 225.74L1970.85 225.742L1971.42 227.327L1972 228.911L1975.08 236.751L1978.16 244.591L1979.92 249.428L1981.68 254.265L1985.13 262.997L1988.58 271.729L1992.04 281.179L1995.51 290.628L1996.08 291.963L1996.65 293.297L1999.83 301.804L2003 310.311L2003.34 311.558L2003.67 312.804L2003.93 312.649L2004.18 312.494L2004.94 310.402L2005.71 308.31L2009.29 298.802L2012.87 289.294L2015.89 281.454L2018.91 273.615L2023.13 262.272L2027.35 250.929L2030.52 242.923L2033.69 234.916L2035.18 230.913L2036.66 226.91L2037.1 226.242L2037.54 225.575H2057.26H2076.99V225.64V225.704L2076.34 226.807L2075.69 227.911L2072.71 234.916L2069.72 241.922L2067.06 248.26L2064.41 254.599L2062.63 258.936L2060.86 263.273L2058.72 268.277L2056.58 273.281L2050.42 287.96L2044.25 302.638L2041.57 308.977L2038.89 315.315L2036.96 319.652L2035.04 323.989L2032.96 328.993L2030.87 333.997L2028.04 340.669L2025.21 347.341L2022.62 353.68L2020.02 360.019L2016.85 367.358L2013.69 374.697L2010.33 382.704L2006.97 390.71L2005.26 394.547L2003.54 398.383L2001.86 402.386L2000.18 406.39L1997.92 412.061L1995.66 417.732L1995.24 418.65L1994.81 419.567H1956.8H1918.78L1919.59 418.483ZM2000.58 400.718V400.385L2000.26 400.885L1999.94 401.386V401.719V402.053L2000.26 401.552L2000.58 401.052V400.718ZM2001.59 398.28L2001.58 397.716L2001.26 398.216L2000.94 398.717L2000.93 398.987L2000.93 399.257L2001.26 399.05L2001.59 398.844L2001.59 398.28ZM1954.78 276.388L1954.61 275.95L1954.58 276.589L1954.56 277.229L1954.76 277.027L1954.96 276.826L1954.78 276.388ZM1953.45 273.385L1953.27 272.947L1953.25 273.587L1953.22 274.226L1953.42 274.025L1953.62 273.823L1953.45 273.385ZM1292.16 357.099L1290.23 355.014L1277.61 342.504L1264.99 329.994V277.868V225.742L1281.92 225.739L1298.85 225.736L1300.52 225.536L1302.19 225.335L1302.1 261.318L1302.01 297.3L1302.29 306.284L1302.57 315.268L1304.38 316.902L1306.19 318.536L1308.69 320.722L1311.2 322.907L1312.53 323.524L1313.87 324.141H1324.04H1334.22L1335.55 323.521L1336.88 322.902L1339.39 320.668L1341.89 318.435L1343.22 317.206L1344.56 315.976L1346.19 314.057L1347.81 312.138L1348.1 310.611L1348.38 309.084L1348.22 267.329L1348.05 225.575L1366.48 225.628L1384.92 225.681L1385 228.297L1385.08 230.913L1385.17 294.548L1385.26 358.184L1373.51 358.184L1361.75 358.183L1361.19 357.323L1360.63 356.462L1357.82 350.401L1355.01 344.339L1353.82 341.587L1352.63 338.834H1352.39H1352.16L1350.89 340.753L1349.62 342.671L1341.29 350.928L1332.96 359.184H1313.52H1294.08L1292.16 357.099ZM1305.86 320.627L1304.52 319.451L1303.72 318.717L1302.91 317.984L1303.42 318.818L1303.93 319.652L1305.34 320.736L1306.74 321.821L1306.97 321.812L1307.19 321.803L1305.86 320.627ZM1534.92 354.492L1530.42 349.799L1526.06 345.756L1521.7 341.713L1515.61 335.797L1509.53 329.88V291.516V253.152L1509.72 252.64L1509.92 252.129L1513.64 248.724L1517.37 245.319L1528.21 234.758L1539.05 224.198L1571.41 224.322L1603.77 224.447L1604.6 224.958L1605.44 225.47L1612.61 232.728L1619.78 239.987L1626.35 246.292L1632.91 252.597L1633.1 256.911L1633.29 261.224L1633.31 295.776L1633.34 330.328L1627.23 336.135L1621.12 341.943L1612.34 350.564L1603.57 359.184H1571.49H1539.42L1534.92 354.492ZM1584.06 325.791L1585.37 325.428L1590.65 320.233L1595.93 315.038V292.155V269.273L1595.61 268.153L1595.29 267.033L1593.55 265.153L1591.81 263.273L1589.46 260.822L1587.1 258.371L1585.74 257.576L1584.38 256.78L1571.56 256.747L1558.73 256.714L1557.9 257.036L1557.06 257.358L1552.66 261.579L1548.26 265.801L1547.57 266.925L1546.87 268.05L1546.96 291.798L1547.06 315.546L1548.72 316.928L1550.39 318.311L1553.97 321.817L1557.55 325.323L1558.64 325.722L1559.73 326.12L1571.24 326.137L1582.75 326.154L1584.06 325.791ZM907.327 358.267L876.763 358.18L869.463 350.924L862.163 343.668L855.074 337.062L847.985 330.456L847.971 330.058L847.957 329.66L847.842 325.991L847.727 322.321L847.68 287.336L847.633 252.351L852.563 247.637L857.492 242.923L864.52 236.084L871.548 229.245L874.384 226.674L877.22 224.103L907.222 224.089L937.224 224.074L938.25 224.701L939.275 225.327L945.255 231.087L951.236 236.847L958.992 244.656L966.748 252.466V272.381V292.297L966.962 296.967L967.176 301.637L925.844 301.547L884.512 301.457L884.62 308.342L884.729 315.226L884.954 315.797L885.179 316.369L890.293 321.263L895.407 326.158L896.298 326.408L897.189 326.658L930.416 326.651L963.643 326.644L962.183 329.32L960.723 331.996L955.286 342.838L949.848 353.68L948.873 356.098L947.897 358.515L942.893 358.435L937.889 358.354L907.327 358.267ZM930.91 269.861L930.677 263.273L929.788 261.977L928.898 260.681L924.901 256.89L920.903 253.098L914.218 253.097L907.533 253.096L901.362 252.895L895.19 252.694L892.021 255.373L888.851 258.053L886.85 260.315L884.848 262.577L884.74 269.514L884.633 276.45H907.888H931.143L930.91 269.861ZM964.933 254.614L964.706 253.098H964.45H964.195L964.535 254.757L964.875 256.417L965.018 256.274L965.161 256.131L964.933 254.614ZM964.079 252.322V252.213L963.162 251.404L962.245 250.596L963.053 251.513L963.862 252.431H963.971H964.079V252.322ZM1845.6 358.184L1800.12 358.017L1801.38 355.848L1802.63 353.68L1808.1 343.338L1813.57 332.996L1815.18 329.877L1816.8 326.758L1845.73 326.801L1874.66 326.844L1876.36 326.395L1878.06 325.947L1879.95 324.316L1881.84 322.685L1882.22 321.335L1882.59 319.986L1882.24 315.551L1881.89 311.116L1881.3 310.22L1880.71 309.323L1880.02 308.736L1879.33 308.15L1877.8 307.147L1876.27 306.144L1852.42 306.059L1828.56 305.974L1827.11 304.974L1825.66 303.973L1818.47 296.941L1811.27 289.909L1807.73 286.658L1804.19 283.408L1803.98 279.679L1803.77 275.95L1803.71 263.573L1803.65 251.196L1804.36 250.062L1805.07 248.928L1811.34 242.756L1817.61 236.584L1821.45 232.926L1825.28 229.269L1827.17 227.467L1829.05 225.666L1872.04 225.62L1915.02 225.575L1909.88 235.917L1904.74 246.259L1902.5 251.43L1900.26 256.601L1873.43 256.642L1846.6 256.683L1845.57 257.215L1844.54 257.747L1842.34 259.887L1840.13 262.028L1840.29 263.985L1840.45 265.942L1840.62 268.055L1840.79 270.168L1841.34 271.096L1841.89 272.023L1842.82 272.573L1843.75 273.123L1844.47 274.286L1845.19 275.449H1870.04H1894.9L1901.96 282.322L1909.02 289.195L1913.94 294.225L1918.86 299.255L1918.85 316.293L1918.84 333.33L1918.34 333.997L1917.83 334.664L1906.19 346.391L1894.54 358.117L1892.81 358.234L1891.08 358.35L1845.6 358.184ZM1810.52 356.271L1809.1 356.144L1807.69 356.271L1806.27 356.399H1809.1H1811.94L1810.52 356.271ZM1853.56 356.295L1853.14 356.126L1852.72 356.295L1852.31 356.463H1853.14H1853.97L1853.56 356.295ZM1858.05 356.272L1856.79 356.141L1855.72 356.275L1854.64 356.409L1856.98 356.406L1859.31 356.404L1858.05 356.272ZM1861.57 356.297L1861.16 356.131L1860.57 356.284L1859.98 356.438L1860.98 356.451L1861.98 356.463L1861.57 356.297ZM1868.24 356.295L1867.82 356.127L1867.4 356.295L1866.98 356.463H1867.82H1868.65L1868.24 356.295ZM1879.91 356.295L1879.49 356.127L1879.08 356.295L1878.66 356.463H1879.49H1880.33L1879.91 356.295ZM1886.26 356.297L1885.85 356.131L1885.26 356.284L1884.67 356.438L1885.67 356.451L1886.67 356.463L1886.26 356.297ZM1888.41 356.314L1888.21 356.113L1887.77 356.288L1887.33 356.463L1887.97 356.489L1888.61 356.516L1888.41 356.314ZM1894.94 354.647L1896.34 353.112L1900.88 348.475L1905.41 343.839H1905.17H1904.92L1899.17 349.76L1893.41 355.682L1891.71 355.877L1890 356.073L1891.77 356.128L1893.53 356.182L1894.94 354.647ZM1907.34 341.901L1907.56 341.338L1906.54 342.317L1905.52 343.296V343.408V343.52L1906.32 342.992L1907.13 342.464L1907.34 341.901ZM1914.02 296.467L1912.73 295.144L1912.56 295.311L1912.4 295.478L1913.69 296.8L1914.98 298.122L1915.15 297.956L1915.31 297.789L1914.02 296.467ZM1891.41 295.931L1891.21 295.73L1890.77 295.905L1890.34 296.08L1890.98 296.107L1891.62 296.133L1891.41 295.931ZM1895.77 295.89L1894.52 295.76L1893.1 295.888L1891.67 296.016L1894.34 296.019L1897.01 296.021L1895.77 295.89ZM1911.69 295.799L1911.02 295.513L1904.18 295.561L1897.34 295.61L1903.68 295.799L1910.02 295.988L1911.19 296.037L1912.35 296.086L1911.69 295.799ZM688.002 277.372L688 196.552L688.105 188.628L688.211 180.705H742.002H795.794L796.618 181.261L797.443 181.816L799.612 183.848L801.78 185.879L812.532 196.169L823.284 206.458L823.9 207.51L824.517 208.561L824.377 227.911L824.236 247.26L821.015 250.435L817.793 253.61L812.419 258.835L807.044 264.06L808.415 265.082L809.787 266.104L819.88 276.031L829.974 285.958L829.97 308.025L829.967 330.093L823.211 336.572L816.456 343.05L812.619 346.521L808.783 349.991L804.489 354.004L800.194 358.017L744.098 358.105L688.002 358.193L688.002 277.372ZM781.236 324.198L782.042 323.739L786.495 319.703L790.948 315.667L791.275 314.49L791.601 313.314L791.605 303.327L791.608 293.341L790.933 291.948L790.259 290.554L786.68 287.288L783.101 284.022L782.1 283.407L781.099 282.791L753.661 282.79L726.223 282.789L726.229 303.82L726.235 324.852L753.334 324.754L780.432 324.656L781.236 324.198ZM776.326 250.626L777.56 250.185L779.328 248.748L781.097 247.311L783.888 244.45L786.679 241.588L786.623 232.807L786.566 224.025L786.247 223.187L785.929 222.349L782.178 218.507L778.428 214.666L777.26 214.116L776.092 213.565L751.155 213.665L726.218 213.764V232.43V251.096L750.655 251.081L775.092 251.067L776.326 250.626ZM789.486 241.672L789.293 240.254L789.069 235.991L788.845 231.727L788.687 231.885L788.53 232.042L788.774 237.566L789.017 243.09H789.348H789.679L789.486 241.672ZM1025.73 356.129L1024.17 354.119L1021.25 351.064L1018.32 348.009L1010.71 340.213L1003.09 332.417L1002.52 331.372L1001.94 330.328L1001.84 293.81L1001.75 257.292L1001.68 257.226L1001.61 257.16L998.774 256.984L995.939 256.808L988.21 256.787L980.482 256.767L980.469 241.255L980.457 225.742L989.532 225.739L998.608 225.736L1000.37 225.524L1002.14 225.312L1001.98 223.607L1001.82 221.901L1001.75 214.898L1001.67 207.894L1005.53 205.058L1009.38 202.223L1014.67 198.31L1019.96 194.398L1023.13 191.961L1026.3 189.524L1030.41 186.575L1034.53 183.625L1036.67 181.813L1038.8 180L1038.89 202.788L1038.97 225.575H1060.41H1081.84L1081.84 225.706L1081.84 225.837L1075.41 238.55L1068.98 251.263L1067.71 254.015L1066.43 256.767H1052.44H1038.44L1038.61 260.854L1038.78 264.941L1038.87 290.767L1038.95 316.593L1041.28 319.29L1043.61 321.987L1044.29 322.524L1044.98 323.061L1046.05 323.608L1047.11 324.156H1061.31H1075.5V324.391V324.626L1074.35 327.143L1073.2 329.66L1070.55 335.331L1067.91 341.003L1064.92 347.341L1061.92 353.68L1061.15 355.932L1060.37 358.183L1043.83 358.162L1027.3 358.14L1025.73 356.129ZM1004.02 325.245L1003.88 324.323L1003.87 325.991L1003.87 327.659L1004.01 326.913L1004.16 326.167L1004.02 325.245ZM1004.01 319.575L1003.86 318.985L1003.84 319.986L1003.83 320.987L1004 320.576L1004.16 320.165L1004.01 319.575ZM1004 317.734L1003.83 317.317V318.151V318.985L1004 318.568L1004.17 318.151L1004 317.734ZM1004.21 316.149L1004.38 315.482H1004.08H1003.78V316.149V316.817H1003.91H1004.03L1004.21 316.149ZM1004.28 313.814L1004.05 312.766L1003.91 312.903L1003.77 313.04L1003.99 314.106L1004.2 315.172L1004.35 315.017L1004.51 314.863L1004.28 313.814ZM1080.17 358.06V357.932L1080.72 356.64L1081.26 355.348L1083.18 349.844L1085.09 344.339L1089.18 333.33L1093.26 322.321L1094.69 318.318L1096.12 314.314L1098.69 307.476L1101.26 300.637L1103.53 293.965L1105.8 287.292L1107.96 281.121L1110.12 274.949L1112.84 267.61L1115.56 260.27L1117.21 255.767L1118.86 251.263L1121.17 244.758L1123.49 238.252L1127.17 228.077L1130.86 217.902L1132.24 213.899L1133.62 209.896L1137.21 200.054L1140.79 190.213L1142.41 185.459L1144.02 180.705H1167.44H1190.85L1191.52 182.29L1192.2 183.875L1193.2 186.71L1194.19 189.546L1197.05 197.386L1199.9 205.225L1202.55 212.898L1205.2 220.571L1207.22 225.909L1209.25 231.247L1214.91 246.426L1220.56 261.605L1222.4 266.776L1224.23 271.947L1224.8 273.948L1225.38 275.95L1227.7 281.955L1230.02 287.96L1231.8 293.131L1233.58 298.301L1235.41 303.472L1237.23 308.643L1238.9 312.98L1240.58 317.317L1242.48 322.321L1244.38 327.325L1246.97 334.998L1249.57 342.671L1251.81 348.176L1254.06 353.68L1254.66 355.348L1255.25 357.016L1255.49 357.602L1255.72 358.189L1234.8 358.103L1213.87 358.017L1211.06 349.844L1208.24 341.67L1205.05 332.162L1201.86 322.655L1201.38 321.707L1200.89 320.76L1201.07 320.292L1201.25 319.825L1167.71 319.739L1134.16 319.652L1133.89 319.986L1133.62 320.319L1132.05 325.323L1130.48 330.328L1126.83 340.463L1123.17 350.599L1122.22 354.308L1121.26 358.017L1100.72 358.103L1080.17 358.189V358.06ZM1218.37 356.295L1217.95 356.126L1217.54 356.295L1217.12 356.463H1217.95H1218.79L1218.37 356.295ZM1224.54 356.277L1223.62 356.138L1222.71 356.277L1221.79 356.416H1223.62H1225.46L1224.54 356.277ZM1227.05 356.297L1226.64 356.131L1226.05 356.284L1225.46 356.438L1226.46 356.451L1227.46 356.463L1227.05 356.297ZM1237.06 315.135L1236.88 314.455L1236.72 314.62L1236.55 314.786L1236.75 315.301L1236.95 315.816H1237.09H1237.24L1237.06 315.135ZM1189.76 286.375L1189.55 285.624L1181.09 259.937L1172.63 234.249L1170.24 226.743L1167.84 219.237L1167.49 218.803L1167.14 218.369L1166.73 218.803L1166.33 219.237L1165.09 223.407L1163.85 227.577L1163.39 229.078L1162.93 230.579L1160.75 237.919L1158.58 245.258L1157.6 247.927L1156.62 250.596L1153.79 259.103L1150.97 267.61L1148.73 274.615L1146.49 281.621L1145.52 283.752L1144.56 285.883V286.505V287.126H1167.27H1189.98L1189.76 286.375ZM1446.05 357.517L1445.57 356.845L1440.78 351.593L1435.99 346.341L1428.64 338.902L1421.29 331.463L1421.19 294.115L1421.1 256.767H1411.1H1401.1V241.294V225.82L1411.09 225.69L1421.08 225.56L1421.32 225.32L1421.56 225.08L1421.18 216.992L1420.81 208.903L1421.22 208.328L1421.62 207.753L1426.79 203.839L1431.96 199.924L1442.8 191.77L1453.65 183.616L1455.81 181.818L1457.98 180.02L1458.07 202.881L1458.15 225.742H1479.87H1501.58L1499.38 229.829L1497.19 233.915L1492.97 242.256L1488.75 250.596L1487.19 253.598L1485.63 256.601H1472.31H1458.98L1458.57 256.684L1458.15 256.767V286.475V316.182L1458.64 317.125L1459.13 318.068L1461.39 320.159L1463.65 322.25L1465.14 323.203L1466.62 324.156H1480.9H1495.18V324.269V324.382L1493.48 328.355L1491.78 332.329L1486.83 342.671L1481.87 353.013L1480.92 355.515L1479.97 358.017L1463.24 358.103L1446.52 358.19L1446.05 357.517Z" fill="white"/>
</svg>
