<svg width="2400" height="600" viewBox="0 0 2400 600" fill="none" xmlns="http://www.w3.org/2000/svg">
<path d="M324.645 128.243C326.245 128.816 338.911 139.108 341.313 140.989C380.166 171.663 418.416 203.092 456.042 235.259C455.606 249.463 455.993 265.963 455.989 280.356L456.002 370.545C456.004 383.669 456.336 398.162 455.879 411.129L455.518 411.048C453.001 407.401 448.515 398.95 446.072 394.723L426.176 360.435L426.221 264.719C408.136 241.715 389.974 217.123 372.396 193.687C361.978 179.871 351.689 165.959 341.53 151.952C335.908 144.212 329.956 136.162 324.645 128.243Z" fill="#FACC15"/>
<path d="M599.898 128.243C598.299 128.816 585.633 139.108 583.23 140.989C544.377 171.663 506.127 203.092 468.501 235.259C468.937 249.463 468.55 265.963 468.554 280.356L468.541 370.545C468.539 383.669 468.207 398.162 468.665 411.129L469.025 411.048C471.542 407.401 476.028 398.95 478.471 394.723L498.368 360.435L498.322 264.719C516.407 241.715 534.569 217.123 552.147 193.687C562.565 179.871 572.854 165.959 583.013 151.952C588.635 144.212 594.587 136.162 599.898 128.243Z" fill="#FACC15"/>
<path d="M1656.76 427.423L1656.98 426.845V330.123V233.4L1668.83 233.488L1680.68 233.575L1683.14 239.08L1685.61 244.584L1687.67 248.521L1689.74 252.458L1689.98 252.358L1690.23 252.257L1692.24 249.922L1694.25 247.587L1701.73 239.997L1709.22 232.408H1729.6H1749.97L1750.93 232.229L1751.89 232.051L1766.66 246.658L1781.43 261.265L1781.42 299.559L1781.41 337.854L1780.68 338.846L1779.95 339.839L1771.76 347.477L1763.57 355.115L1758.24 360.512L1752.91 365.909L1752.05 366.354L1751.19 366.798L1731.88 366.605L1712.58 366.412L1711.22 365.215L1709.86 364.018L1705.02 359.67L1700.18 355.323L1697.24 352.879L1694.3 350.435L1694.21 350.553L1694.12 350.671L1694.37 364.349L1694.62 378.027L1694.56 389.5L1694.51 400.974L1689.51 404.48L1684.5 407.985L1679.5 411.509L1674.49 415.032L1672.33 416.756L1670.16 418.479L1665.49 421.787L1660.82 425.095L1658.68 426.547L1656.54 428L1656.76 427.423ZM1733.13 332.136L1734.39 331.787L1739.23 327.265L1744.06 322.744L1744.47 322.029L1744.88 321.314L1745 309.637L1745.11 297.961L1744.88 287.119L1744.65 276.277L1742.26 273.934L1739.88 271.591L1736.75 268.68L1733.61 265.768L1732.91 265.765L1732.21 265.762L1720 265.682L1707.79 265.601L1706.43 266.769L1705.07 267.937L1700.57 272.032L1696.08 276.127L1695.46 277.036L1694.84 277.945V298.628V319.312L1695.09 320.204L1695.34 321.097L1698.26 323.923L1701.18 326.749L1704.65 329.619L1708.11 332.489L1719.99 332.487L1731.87 332.485L1733.13 332.136ZM1919.59 426.483L1920.4 425.399L1922.52 421.896L1924.64 418.393L1927.38 414.223L1930.11 410.053L1934.79 402.714L1939.48 395.374L1940.33 394.133L1941.19 392.891L1956.37 393.102L1971.55 393.314L1971.75 392.676L1971.95 392.038L1973.65 387.701L1975.34 383.364L1978.76 375.358L1982.18 367.351L1983.53 364.565L1984.88 361.78L1984.09 359.728L1983.29 357.677L1981.31 353.006L1979.34 348.336L1977.31 343.832L1975.29 339.328L1972.39 332.656L1969.48 325.984L1968.24 322.648L1966.99 319.312L1963.98 312.306L1960.96 305.301L1957.95 297.794L1954.93 290.288L1950.36 279.78L1945.79 269.271L1943.32 263.617L1940.85 257.963L1938.16 251.274L1935.47 244.584L1933.14 239.413L1930.8 234.242L1930.42 233.771L1930.04 233.299L1932.87 233.519L1935.71 233.738L1953.28 233.74L1970.85 233.742L1971.42 235.327L1972 236.911L1975.08 244.751L1978.16 252.591L1979.92 257.428L1981.68 262.265L1985.13 270.997L1988.58 279.729L1992.04 289.179L1995.51 298.628L1996.08 299.963L1996.65 301.297L1999.83 309.804L2003 318.311L2003.34 319.558L2003.67 320.804L2003.93 320.649L2004.18 320.494L2004.94 318.402L2005.71 316.31L2009.29 306.802L2012.87 297.294L2015.89 289.454L2018.91 281.615L2023.13 270.272L2027.35 258.929L2030.52 250.923L2033.69 242.916L2035.18 238.913L2036.66 234.91L2037.1 234.242L2037.54 233.575H2057.26H2076.99V233.64V233.704L2076.34 234.807L2075.69 235.911L2072.71 242.916L2069.72 249.922L2067.06 256.26L2064.41 262.599L2062.63 266.936L2060.86 271.273L2058.72 276.277L2056.58 281.281L2050.42 295.96L2044.25 310.638L2041.57 316.977L2038.89 323.315L2036.96 327.652L2035.04 331.989L2032.96 336.993L2030.87 341.997L2028.04 348.669L2025.21 355.341L2022.62 361.68L2020.02 368.019L2016.85 375.358L2013.69 382.697L2010.33 390.704L2006.97 398.71L2005.26 402.547L2003.54 406.383L2001.86 410.386L2000.18 414.39L1997.92 420.061L1995.66 425.732L1995.24 426.65L1994.81 427.567H1956.8H1918.78L1919.59 426.483ZM2000.58 408.718V408.385L2000.26 408.885L1999.94 409.386V409.719V410.053L2000.26 409.552L2000.58 409.052V408.718ZM2001.59 406.28L2001.58 405.716L2001.26 406.216L2000.94 406.717L2000.93 406.987L2000.93 407.257L2001.26 407.05L2001.59 406.844L2001.59 406.28ZM1954.78 284.388L1954.61 283.95L1954.58 284.589L1954.56 285.229L1954.76 285.027L1954.96 284.826L1954.78 284.388ZM1953.45 281.385L1953.27 280.947L1953.25 281.587L1953.22 282.226L1953.42 282.025L1953.62 281.823L1953.45 281.385ZM1292.16 365.099L1290.23 363.014L1277.61 350.504L1264.99 337.994V285.868V233.742L1281.92 233.739L1298.85 233.736L1300.52 233.536L1302.19 233.335L1302.1 269.318L1302.01 305.3L1302.29 314.284L1302.57 323.268L1304.38 324.902L1306.19 326.536L1308.69 328.722L1311.2 330.907L1312.53 331.524L1313.87 332.141H1324.04H1334.22L1335.55 331.521L1336.88 330.902L1339.39 328.668L1341.89 326.435L1343.22 325.206L1344.56 323.976L1346.19 322.057L1347.81 320.138L1348.1 318.611L1348.38 317.084L1348.22 275.329L1348.05 233.575L1366.48 233.628L1384.92 233.681L1385 236.297L1385.08 238.913L1385.17 302.548L1385.26 366.184L1373.51 366.184L1361.75 366.183L1361.19 365.323L1360.63 364.462L1357.82 358.401L1355.01 352.339L1353.82 349.587L1352.63 346.834H1352.39H1352.16L1350.89 348.753L1349.62 350.671L1341.29 358.928L1332.96 367.184H1313.52H1294.08L1292.16 365.099ZM1305.86 328.627L1304.52 327.451L1303.72 326.717L1302.91 325.984L1303.42 326.818L1303.93 327.652L1305.34 328.736L1306.74 329.821L1306.97 329.812L1307.19 329.803L1305.86 328.627ZM1534.92 362.492L1530.42 357.799L1526.06 353.756L1521.7 349.713L1515.61 343.797L1509.53 337.88V299.516V261.152L1509.72 260.64L1509.92 260.129L1513.64 256.724L1517.37 253.319L1528.21 242.758L1539.05 232.198L1571.41 232.322L1603.77 232.447L1604.6 232.958L1605.44 233.47L1612.61 240.728L1619.78 247.987L1626.35 254.292L1632.91 260.597L1633.1 264.911L1633.29 269.224L1633.31 303.776L1633.34 338.328L1627.23 344.135L1621.12 349.943L1612.34 358.564L1603.57 367.184H1571.49H1539.42L1534.92 362.492ZM1584.06 333.791L1585.37 333.428L1590.65 328.233L1595.93 323.038V300.155V277.273L1595.61 276.153L1595.29 275.033L1593.55 273.153L1591.81 271.273L1589.46 268.822L1587.1 266.371L1585.74 265.576L1584.38 264.78L1571.56 264.747L1558.73 264.714L1557.9 265.036L1557.06 265.358L1552.66 269.579L1548.26 273.801L1547.57 274.925L1546.87 276.05L1546.96 299.798L1547.06 323.546L1548.72 324.928L1550.39 326.311L1553.97 329.817L1557.55 333.323L1558.64 333.722L1559.73 334.12L1571.24 334.137L1582.75 334.154L1584.06 333.791ZM907.327 366.267L876.763 366.18L869.463 358.924L862.163 351.668L855.074 345.062L847.985 338.456L847.971 338.058L847.957 337.66L847.842 333.991L847.727 330.321L847.68 295.336L847.633 260.351L852.563 255.637L857.492 250.923L864.52 244.084L871.548 237.245L874.384 234.674L877.22 232.103L907.222 232.089L937.224 232.074L938.25 232.701L939.275 233.327L945.255 239.087L951.236 244.847L958.992 252.656L966.748 260.466V280.381V300.297L966.962 304.967L967.176 309.637L925.844 309.547L884.512 309.457L884.62 316.342L884.729 323.226L884.954 323.797L885.179 324.369L890.293 329.263L895.407 334.158L896.298 334.408L897.189 334.658L930.416 334.651L963.643 334.644L962.183 337.32L960.723 339.996L955.286 350.838L949.848 361.68L948.873 364.098L947.897 366.515L942.893 366.435L937.889 366.354L907.327 366.267ZM930.91 277.861L930.677 271.273L929.788 269.977L928.898 268.681L924.901 264.89L920.903 261.098L914.218 261.097L907.533 261.096L901.362 260.895L895.19 260.694L892.021 263.373L888.851 266.053L886.85 268.315L884.848 270.577L884.74 277.514L884.633 284.45H907.888H931.143L930.91 277.861ZM964.933 262.614L964.706 261.098H964.45H964.195L964.535 262.757L964.875 264.417L965.018 264.274L965.161 264.131L964.933 262.614ZM964.079 260.322V260.213L963.162 259.404L962.245 258.596L963.053 259.513L963.862 260.431H963.971H964.079V260.322ZM1845.6 366.184L1800.12 366.017L1801.38 363.848L1802.63 361.68L1808.1 351.338L1813.57 340.996L1815.18 337.877L1816.8 334.758L1845.73 334.801L1874.66 334.844L1876.36 334.395L1878.06 333.947L1879.95 332.316L1881.84 330.685L1882.22 329.335L1882.59 327.986L1882.24 323.551L1881.89 319.116L1881.3 318.22L1880.71 317.323L1880.02 316.736L1879.33 316.15L1877.8 315.147L1876.27 314.144L1852.42 314.059L1828.56 313.974L1827.11 312.974L1825.66 311.973L1818.47 304.941L1811.27 297.909L1807.73 294.658L1804.19 291.408L1803.98 287.679L1803.77 283.95L1803.71 271.573L1803.65 259.196L1804.36 258.062L1805.07 256.928L1811.34 250.756L1817.61 244.584L1821.45 240.926L1825.28 237.269L1827.17 235.467L1829.05 233.666L1872.04 233.62L1915.02 233.575L1909.88 243.917L1904.74 254.259L1902.5 259.43L1900.26 264.601L1873.43 264.642L1846.6 264.683L1845.57 265.215L1844.54 265.747L1842.34 267.887L1840.13 270.028L1840.29 271.985L1840.45 273.942L1840.62 276.055L1840.79 278.168L1841.34 279.096L1841.89 280.023L1842.82 280.573L1843.75 281.123L1844.47 282.286L1845.19 283.449H1870.04H1894.9L1901.96 290.322L1909.02 297.195L1913.94 302.225L1918.86 307.255L1918.85 324.293L1918.84 341.33L1918.34 341.997L1917.83 342.664L1906.19 354.391L1894.54 366.117L1892.81 366.234L1891.08 366.35L1845.6 366.184ZM1810.52 364.271L1809.1 364.144L1807.69 364.271L1806.27 364.399H1809.1H1811.94L1810.52 364.271ZM1853.56 364.295L1853.14 364.126L1852.72 364.295L1852.31 364.463H1853.14H1853.97L1853.56 364.295ZM1858.05 364.272L1856.79 364.141L1855.72 364.275L1854.64 364.409L1856.98 364.406L1859.31 364.404L1858.05 364.272ZM1861.57 364.297L1861.16 364.131L1860.57 364.284L1859.98 364.438L1860.98 364.451L1861.98 364.463L1861.57 364.297ZM1868.24 364.295L1867.82 364.127L1867.4 364.295L1866.98 364.463H1867.82H1868.65L1868.24 364.295ZM1879.91 364.295L1879.49 364.127L1879.08 364.295L1878.66 364.463H1879.49H1880.33L1879.91 364.295ZM1886.26 364.297L1885.85 364.131L1885.26 364.284L1884.67 364.438L1885.67 364.451L1886.67 364.463L1886.26 364.297ZM1888.41 364.314L1888.21 364.113L1887.77 364.288L1887.33 364.463L1887.97 364.489L1888.61 364.516L1888.41 364.314ZM1894.94 362.647L1896.34 361.112L1900.88 356.475L1905.41 351.839H1905.17H1904.92L1899.17 357.76L1893.41 363.682L1891.71 363.877L1890 364.073L1891.77 364.128L1893.53 364.182L1894.94 362.647ZM1907.34 349.901L1907.56 349.338L1906.54 350.317L1905.52 351.296V351.408V351.52L1906.32 350.992L1907.13 350.464L1907.34 349.901ZM1914.02 304.467L1912.73 303.144L1912.56 303.311L1912.4 303.478L1913.69 304.8L1914.98 306.122L1915.15 305.956L1915.31 305.789L1914.02 304.467ZM1891.41 303.931L1891.21 303.73L1890.77 303.905L1890.34 304.08L1890.98 304.107L1891.62 304.133L1891.41 303.931ZM1895.77 303.89L1894.52 303.76L1893.1 303.888L1891.67 304.016L1894.34 304.019L1897.01 304.021L1895.77 303.89ZM1911.69 303.799L1911.02 303.513L1904.18 303.561L1897.34 303.61L1903.68 303.799L1910.02 303.988L1911.19 304.037L1912.35 304.086L1911.69 303.799ZM688.002 285.372L688 204.552L688.105 196.628L688.211 188.705H742.002H795.794L796.618 189.261L797.443 189.816L799.612 191.848L801.78 193.879L812.532 204.169L823.284 214.458L823.9 215.51L824.517 216.561L824.377 235.911L824.236 255.26L821.015 258.435L817.793 261.61L812.419 266.835L807.044 272.06L808.415 273.082L809.787 274.104L819.88 284.031L829.974 293.958L829.97 316.025L829.967 338.093L823.211 344.572L816.456 351.05L812.619 354.521L808.783 357.991L804.489 362.004L800.194 366.017L744.098 366.105L688.002 366.193L688.002 285.372ZM781.236 332.198L782.042 331.739L786.495 327.703L790.948 323.667L791.275 322.49L791.601 321.314L791.605 311.327L791.608 301.341L790.933 299.948L790.259 298.554L786.68 295.288L783.101 292.022L782.1 291.407L781.099 290.791L753.661 290.79L726.223 290.789L726.229 311.82L726.235 332.852L753.334 332.754L780.432 332.656L781.236 332.198ZM776.326 258.626L777.56 258.185L779.328 256.748L781.097 255.311L783.888 252.45L786.679 249.588L786.623 240.807L786.566 232.025L786.247 231.187L785.929 230.349L782.178 226.507L778.428 222.666L777.26 222.116L776.092 221.565L751.155 221.665L726.218 221.764V240.43V259.096L750.655 259.081L775.092 259.067L776.326 258.626ZM789.486 249.672L789.293 248.254L789.069 243.991L788.845 239.727L788.687 239.885L788.53 240.042L788.774 245.566L789.017 251.09H789.348H789.679L789.486 249.672ZM1025.73 364.129L1024.17 362.119L1021.25 359.064L1018.32 356.009L1010.71 348.213L1003.09 340.417L1002.52 339.372L1001.94 338.328L1001.84 301.81L1001.75 265.292L1001.68 265.226L1001.61 265.16L998.774 264.984L995.939 264.808L988.21 264.787L980.482 264.767L980.469 249.255L980.457 233.742L989.532 233.739L998.608 233.736L1000.37 233.524L1002.14 233.312L1001.98 231.607L1001.82 229.901L1001.75 222.898L1001.67 215.894L1005.53 213.058L1009.38 210.223L1014.67 206.31L1019.96 202.398L1023.13 199.961L1026.3 197.524L1030.41 194.575L1034.53 191.625L1036.67 189.813L1038.8 188L1038.89 210.788L1038.97 233.575H1060.41H1081.84L1081.84 233.706L1081.84 233.837L1075.41 246.55L1068.98 259.263L1067.71 262.015L1066.43 264.767H1052.44H1038.44L1038.61 268.854L1038.78 272.941L1038.87 298.767L1038.95 324.593L1041.28 327.29L1043.61 329.987L1044.29 330.524L1044.98 331.061L1046.05 331.608L1047.11 332.156H1061.31H1075.5V332.391V332.626L1074.35 335.143L1073.2 337.66L1070.55 343.331L1067.91 349.003L1064.92 355.341L1061.92 361.68L1061.15 363.932L1060.37 366.183L1043.83 366.162L1027.3 366.14L1025.73 364.129ZM1004.02 333.245L1003.88 332.323L1003.87 333.991L1003.87 335.659L1004.01 334.913L1004.16 334.167L1004.02 333.245ZM1004.01 327.575L1003.86 326.985L1003.84 327.986L1003.83 328.987L1004 328.576L1004.16 328.165L1004.01 327.575ZM1004 325.734L1003.83 325.317V326.151V326.985L1004 326.568L1004.17 326.151L1004 325.734ZM1004.21 324.149L1004.38 323.482H1004.08H1003.78V324.149V324.817H1003.91H1004.03L1004.21 324.149ZM1004.28 321.814L1004.05 320.766L1003.91 320.903L1003.77 321.04L1003.99 322.106L1004.2 323.172L1004.35 323.017L1004.51 322.863L1004.28 321.814ZM1080.17 366.06V365.932L1080.72 364.64L1081.26 363.348L1083.18 357.844L1085.09 352.339L1089.18 341.33L1093.26 330.321L1094.69 326.318L1096.12 322.314L1098.69 315.476L1101.26 308.637L1103.53 301.965L1105.8 295.292L1107.96 289.121L1110.12 282.949L1112.84 275.61L1115.56 268.27L1117.21 263.767L1118.86 259.263L1121.17 252.758L1123.49 246.252L1127.17 236.077L1130.86 225.902L1132.24 221.899L1133.62 217.896L1137.21 208.054L1140.79 198.213L1142.41 193.459L1144.02 188.705H1167.44H1190.85L1191.52 190.29L1192.2 191.875L1193.2 194.71L1194.19 197.546L1197.05 205.386L1199.9 213.225L1202.55 220.898L1205.2 228.571L1207.22 233.909L1209.25 239.247L1214.91 254.426L1220.56 269.605L1222.4 274.776L1224.23 279.947L1224.8 281.948L1225.38 283.95L1227.7 289.955L1230.02 295.96L1231.8 301.131L1233.58 306.301L1235.41 311.472L1237.23 316.643L1238.9 320.98L1240.58 325.317L1242.48 330.321L1244.38 335.325L1246.97 342.998L1249.57 350.671L1251.81 356.176L1254.06 361.68L1254.66 363.348L1255.25 365.016L1255.49 365.602L1255.72 366.189L1234.8 366.103L1213.87 366.017L1211.06 357.844L1208.24 349.67L1205.05 340.162L1201.86 330.655L1201.38 329.707L1200.89 328.76L1201.07 328.292L1201.25 327.825L1167.71 327.739L1134.16 327.652L1133.89 327.986L1133.62 328.319L1132.05 333.323L1130.48 338.328L1126.83 348.463L1123.17 358.599L1122.22 362.308L1121.26 366.017L1100.72 366.103L1080.17 366.189V366.06ZM1218.37 364.295L1217.95 364.126L1217.54 364.295L1217.12 364.463H1217.95H1218.79L1218.37 364.295ZM1224.54 364.277L1223.62 364.138L1222.71 364.277L1221.79 364.416H1223.62H1225.46L1224.54 364.277ZM1227.05 364.297L1226.64 364.131L1226.05 364.284L1225.46 364.438L1226.46 364.451L1227.46 364.463L1227.05 364.297ZM1237.06 323.135L1236.88 322.455L1236.72 322.62L1236.55 322.786L1236.75 323.301L1236.95 323.816H1237.09H1237.24L1237.06 323.135ZM1189.76 294.375L1189.55 293.624L1181.09 267.937L1172.63 242.249L1170.24 234.743L1167.84 227.237L1167.49 226.803L1167.14 226.369L1166.73 226.803L1166.33 227.237L1165.09 231.407L1163.85 235.577L1163.39 237.078L1162.93 238.579L1160.75 245.919L1158.58 253.258L1157.6 255.927L1156.62 258.596L1153.79 267.103L1150.97 275.61L1148.73 282.615L1146.49 289.621L1145.52 291.752L1144.56 293.883V294.505V295.126H1167.27H1189.98L1189.76 294.375ZM1446.05 365.517L1445.57 364.845L1440.78 359.593L1435.99 354.341L1428.64 346.902L1421.29 339.463L1421.19 302.115L1421.1 264.767H1411.1H1401.1V249.294V233.82L1411.09 233.69L1421.08 233.56L1421.32 233.32L1421.56 233.08L1421.18 224.992L1420.81 216.903L1421.22 216.328L1421.62 215.753L1426.79 211.839L1431.96 207.924L1442.8 199.77L1453.65 191.616L1455.81 189.818L1457.98 188.02L1458.07 210.881L1458.15 233.742H1479.87H1501.58L1499.38 237.829L1497.19 241.915L1492.97 250.256L1488.75 258.596L1487.19 261.598L1485.63 264.601H1472.31H1458.98L1458.57 264.684L1458.15 264.767V294.475V324.182L1458.64 325.125L1459.13 326.068L1461.39 328.159L1463.65 330.25L1465.14 331.203L1466.62 332.156H1480.9H1495.18V332.269V332.382L1493.48 336.355L1491.78 340.329L1486.83 350.671L1481.87 361.013L1480.92 363.515L1479.97 366.017L1463.24 366.103L1446.52 366.19L1446.05 365.517Z" fill="#EDEDF3"/>
<path d="M962.281 257.951L960.613 260.786L960.947 261.287L961.781 262.955V264.289L964.95 265.457L966.285 262.955L964.283 259.285L962.281 257.951Z" fill="#EDEDF3"/>
<path d="M1002.81 318.834V335.514L1004.15 338.016L1007.32 335.514L1007.82 318.834H1002.81Z" fill="#EDEDF3"/>
<path d="M1216.16 365.872L1212.15 357.699L1217.32 353.028H1223.66L1231.83 364.705L1216.16 365.872Z" fill="#EDEDF3"/>
<path d="M1237.84 321.336L1234 323.004L1235.17 326.006L1237.84 324.338V321.336Z" fill="#EDEDF3"/>
<path d="M1197.31 322.003L1201.14 329.009V328.675H1203.65V324.672L1197.31 322.003Z" fill="#EDEDF3"/>
<path d="M1299.38 323.296L1301.89 326.006L1302.39 324.672L1306.56 327.674L1308.56 330.01L1304.06 335.848L1298.37 323.159L792.142 254.204V255.615L787.805 253.614V238.101H792.142V254.204L1298.37 323.159L1297.56 321.336L1299.38 323.296L1985.45 416.747L1994.36 414.494L2000.13 403.069L2002.97 406.239L1999.3 413.244L1994.36 414.494L1985.45 416.747L1299.38 323.296Z" fill="#EDEDF3"/>
<path d="M1895.04 299.985L1887.04 304.322L1902.88 311.995L1917.06 307.324L1913.23 302.821L1895.04 299.985Z" fill="#EDEDF3"/>
<path d="M1893.54 365.205L1909.22 349.359L1908.05 348.024L1810.81 357.866L1804.8 365.205H1893.54Z" fill="#EDEDF3"/>
</svg>
